<?xml version="1.0" encoding="utf-8"?>
<!-- Generator: Adobe Illustrator 27.5.0, SVG Export Plug-In . SVG Version: 6.00 Build 0)  -->
<svg version="1.1" id="Layer_1" xmlns="http://www.w3.org/2000/svg" xmlns:xlink="http://www.w3.org/1999/xlink" x="0px" y="0px"
	 viewBox="0 0 860.1 551.7" style="enable-background:new 0 0 860.1 551.7;" xml:space="preserve">
<style type="text/css">
	.st0{fill:#E6E6E6;}
	.st1{fill:#FFFFFF;}
	.st2{fill:#F2F2F2;}
	.st3{fill:#A0F4D5;}
	.st4{fill:#CCCCCC;}
	.st5{fill:#CACACA;}
	.st6{fill:#3F3D56;}
	.st7{fill:#6C63FF;}
	.st8{opacity:0.2;enable-background:new    ;}
	.st9{fill:#2F2E41;}
	.st10{fill:#FFB6B6;}
</style>
<path class="st0" d="M804,487.5H586.7c-16.5,0-29.8-13.4-29.8-29.8V114.8c0-16.5,13.4-29.8,29.8-29.8H804
	c16.5,0,29.8,13.4,29.8,29.8v342.8C833.8,474.1,820.5,487.5,804,487.5z"/>
<path class="st1" d="M807.6,102.8H586.2c-5.2,0-9.3,4.2-9.3,9.3v347.3c0,5.2,4.2,9.3,9.3,9.3h221.4c5.2,0,9.3-4.2,9.3-9.3V112.1
	C816.9,107,812.8,102.8,807.6,102.8z"/>
<path class="st0" d="M592,85c0-1.3,1-2.3,2.3-2.3h15.5c1.3,0,2.3,1,2.3,2.3c0,1.3-1,2.3-2.3,2.3c0,0,0,0,0,0h-15.5
	C593,87.3,592,86.3,592,85z"/>
<path class="st0" d="M617.5,85c0-1.3,1-2.3,2.3-2.3h15.5c1.3,0,2.3,1,2.3,2.3c0,1.3-1,2.3-2.3,2.3c0,0,0,0,0,0h-15.5
	C618.5,87.3,617.5,86.3,617.5,85z"/>
<path class="st0" d="M770.9,85c0-1.3,1-2.3,2.3-2.3h15.5c1.3,0,2.3,1,2.3,2.3c0,1.3-1,2.3-2.3,2.3h-15.5
	C771.9,87.3,770.9,86.3,770.9,85z"/>
<path class="st2" d="M727.6,461.6c0,2.4,0,4.8-0.2,7.2H586.2c-5.2,0-9.3-4.2-9.3-9.3V284.6C663.8,298.7,727.6,373.7,727.6,461.6z"/>
<path class="st3" d="M670.1,192.1h52.7c2.4,0,4.3,1.9,4.3,4.3v5.4c0,2.4-1.9,4.3-4.3,4.3h-52.7c-2.4,0-4.3-1.9-4.3-4.3v-5.4
	C665.8,194,667.7,192.1,670.1,192.1z"/>
<path class="st0" d="M636.7,220.2h119.6c2.4,0,4.3,1.9,4.3,4.3v5.4c0,2.4-1.9,4.3-4.3,4.3H636.7c-2.4,0-4.3-1.9-4.3-4.3v-5.4
	C632.3,222.2,634.3,220.2,636.7,220.2z"/>
<path class="st0" d="M636.7,248.4h119.6c2.4,0,4.3,1.9,4.3,4.3v5.4c0,2.4-1.9,4.3-4.3,4.3H636.7c-2.4,0-4.3-1.9-4.3-4.3v-5.4
	C632.3,250.4,634.3,248.4,636.7,248.4z"/>
<path class="st4" d="M735.8,445.1c-1.8,0.1-3.4-1.3-3.5-3.2c0-1,0.3-1.9,1.1-2.6l0.2-0.9c0-0.1-0.1-0.1-0.1-0.2
	c-1.9-4.6-7.2-6.7-11.8-4.8c-2.2,0.9-3.9,2.7-4.8,4.8c-2.7,6.5-6.2,13.1-7,20c-0.4,3.1-0.2,6.1,0.5,9.1c-6.4-13.9-9.7-29-9.7-44.3
	c0-3.8,0.2-7.7,0.6-11.5c0.4-3.1,0.8-6.2,1.5-9.3c3.4-16.7,10.7-32.4,21.4-45.7c5.2-2.8,9.3-7.1,11.9-12.4c0.9-1.9,1.6-3.9,2-6
	c-0.6,0.1-1.2,0.1-1.8,0.2c-0.2,0-0.4,0-0.6,0l-0.1,0c-1.8,0.1-3.4-1.3-3.5-3.2c0-0.8,0.2-1.6,0.7-2.2c0.3-0.3,0.5-0.6,0.8-0.9
	c0.4-0.5,0.8-0.9,1.2-1.4c0,0,0.1-0.1,0.1-0.1c0.4-0.5,0.9-1.1,1.3-1.6c-0.8-1.2-1.9-2.3-3.1-3c-4.4-2.6-10.5-0.8-13.6,3.2
	c-3.2,4-3.8,9.5-2.7,14.5c1.1,4.2,2.9,8.2,5.3,11.9c-0.2,0.3-0.5,0.6-0.7,0.9c-4.4,5.6-8.1,11.6-11.3,18c0.8-7.1-0.1-14.3-2.7-21
	c-2.6-6.2-7.4-11.5-11.7-16.8c-5.1-6.5-15.6-3.6-16.5,4.5c0,0.1,0,0.2,0,0.2c0.6,0.4,1.3,0.7,1.9,1.1c2.1,1.4,2.6,4.2,1.3,6.3
	c-0.7,1.1-1.8,1.8-3.1,2l-0.1,0c0.2,2.3,0.6,4.5,1.2,6.8c3.3,12.5,11.7,23.1,23.2,29.2c0.4,0.2,0.7,0.4,1.1,0.6
	c-3.2,9.1-5.2,18.5-6,28.1c-0.4,5.6-0.4,11.3,0.1,17l0-0.2c-1.2-6.3-4.6-11.9-9.5-16c-7.3-6-17.6-8.2-25.5-13
	c-2.4-1.6-5.6-0.9-7.2,1.6c-0.7,1-0.9,2.3-0.8,3.5c0,0.1,0,0.1,0,0.2c1.2,0.5,2.3,1,3.4,1.6c0.6,0.4,1.3,0.7,1.9,1.1
	c2.1,1.4,2.6,4.2,1.3,6.3c-0.7,1.1-1.8,1.8-3.1,2l-0.1,0c-0.1,0-0.1,0-0.2,0c2,4.8,4.8,9.2,8.3,13c8.7,9.4,21,14.7,33.8,14.8h0
	c1.7,7.5,4.2,14.8,7.4,21.7h26.6c0.1-0.3,0.2-0.6,0.3-0.9c-2.5,0.2-4.9,0-7.4-0.4c2-2.4,3.9-4.9,5.9-7.3c0,0,0.1-0.1,0.1-0.1
	c1-1.2,2-2.5,3-3.7l0,0C737.1,452.5,736.7,448.7,735.8,445.1L735.8,445.1z M705.4,385.2L705.4,385.2L705.4,385.2L705.4,385.2z
	 M699.5,438.3l-0.2-0.5c0-0.4,0-0.7,0-1.1c0-0.1,0-0.2,0-0.3C699.3,437,699.4,437.6,699.5,438.3L699.5,438.3z"/>
<path class="st5" d="M796.5,133.5H597.3c-0.9,0-1.6-0.8-1.6-1.7c0-0.9,0.7-1.6,1.6-1.6h199.2c0.9,0,1.6,0.8,1.6,1.7
	C798.1,132.7,797.4,133.4,796.5,133.5z"/>
<ellipse class="st6" cx="607.9" cy="120.4" rx="4.8" ry="5"/>
<ellipse class="st6" cx="624.7" cy="120.4" rx="4.8" ry="5"/>
<ellipse class="st6" cx="641.4" cy="120.4" rx="4.8" ry="5"/>
<path class="st6" d="M788.8,117.4h-10.8c-0.5,0-0.8,0.4-0.8,0.8c0,0.4,0.4,0.8,0.8,0.8h10.8c0.5,0,0.8-0.4,0.8-0.8
	C789.5,117.8,789.2,117.4,788.8,117.4L788.8,117.4z"/>
<path class="st6" d="M788.8,120.5h-10.8c-0.5,0-0.8,0.4-0.8,0.8c0,0.4,0.4,0.8,0.8,0.8h10.8c0.5,0,0.8-0.4,0.8-0.8
	C789.5,120.9,789.2,120.5,788.8,120.5L788.8,120.5z"/>
<path class="st6" d="M788.8,123.6h-10.8c-0.5,0-0.8,0.4-0.8,0.8c0,0.4,0.4,0.8,0.8,0.8h10.8c0.5,0,0.8-0.4,0.8-0.8
	C789.5,123.9,789.2,123.6,788.8,123.6L788.8,123.6z"/>
<path class="st0" d="M465.5,284.8H350c-3.4,0-6.2,2.8-6.2,6.2v182.5h127.8V290.9C471.7,287.5,468.9,284.8,465.5,284.8
	C465.5,284.8,465.5,284.8,465.5,284.8z M408.1,388.4c-7.5,0-13.6-6.1-13.6-13.6v-21c0-7.5,6.1-13.6,13.6-13.6
	c7.5,0,13.6,6.1,13.6,13.6v21C421.7,382.3,415.7,388.4,408.1,388.4L408.1,388.4z"/>
<path class="st4" d="M343.4,467.6v17.6c0,1.9,1.5,3.4,3.4,3.4h121.7c1.9,0,3.4-1.5,3.4-3.4v-17.6L343.4,467.6z"/>
<path class="st0" d="M656.8,0H163c-8.8,0-16,7.2-16,16v333.2c0,8.8,7.2,16,16,16h493.8c8.8,0,16-7.2,16-16V16
	C672.8,7.2,665.6,0,656.8,0z"/>
<path class="st1" d="M652.7,11.6H167.1c-4.7,0-8.6,3.8-8.6,8.6v324.9c0,4.7,3.8,8.6,8.6,8.6h485.5c4.7,0,8.6-3.8,8.6-8.6V20.1
	C661.2,15.4,657.4,11.6,652.7,11.6z"/>
<path class="st3" d="M661.2,20.1v324.9c0,4.7-3.8,8.6-8.6,8.6H481.4c-18.9-17.6-34.5-38.5-45.8-61.7c-0.7-1.5-1.5-3-2.1-4.5
	c-10.3-22.5-16.6-46.6-18.5-71.2c-0.1-1.5-0.2-3-0.3-4.6c-0.2-3.9-0.3-7.9-0.3-11.9c0-26.5,5-52.8,14.8-77.4c0.6-1.5,1.2-3,1.9-4.6
	c19.7-46.2,55.2-83.9,100.3-106.2h121.5C657.4,11.6,661.2,15.4,661.2,20.1z"/>
<path class="st5" d="M628.2,56.3H174c-1,0-1.8-0.8-1.8-1.8c0-1,0.8-1.7,1.8-1.8h454.3c1,0,1.8,0.8,1.8,1.8
	C630,55.5,629.2,56.3,628.2,56.3z"/>
<ellipse class="st6" cx="204.9" cy="32.7" rx="10.6" ry="10.8"/>
<ellipse class="st6" cx="241.5" cy="32.7" rx="10.6" ry="10.8"/>
<ellipse class="st6" cx="278" cy="32.7" rx="10.6" ry="10.8"/>
<path class="st6" d="M606.2,24.5h-26c-1.1,0-1.9,0.9-1.9,2c0,1.1,0.9,1.9,1.9,1.9h26c1.1,0,1.9-0.9,1.9-2
	C608.1,25.4,607.3,24.5,606.2,24.5z"/>
<path class="st6" d="M606.2,31.9h-26c-1.1,0-1.9,0.9-1.9,2c0,1.1,0.9,1.9,1.9,1.9h26c1.1,0,1.9-0.9,1.9-2
	C608.1,32.8,607.3,31.9,606.2,31.9z"/>
<path class="st6" d="M606.2,39.3h-26c-1.1,0-1.9,0.9-1.9,2c0,1.1,0.9,1.9,1.9,1.9h26c1.1,0,1.9-0.9,1.9-2
	C608.1,40.2,607.3,39.3,606.2,39.3z"/>
<path class="st3" d="M249.5,161.9h63.5c2.4,0,4.3,1.9,4.3,4.3v6.8c0,2.4-1.9,4.3-4.3,4.3h-63.5c-2.4,0-4.3-1.9-4.3-4.3v-6.8
	C245.2,163.8,247.1,161.9,249.5,161.9z"/>
<path class="st0" d="M212.9,192.8h136.9c2.4,0,4.3,1.9,4.3,4.3v6.8c0,2.4-1.9,4.3-4.3,4.3H212.9c-2.4,0-4.3-1.9-4.3-4.3v-6.8
	C208.5,194.7,210.5,192.8,212.9,192.8z"/>
<path class="st0" d="M212.9,223.6h136.9c2.4,0,4.3,1.9,4.3,4.3v6.8c0,2.4-1.9,4.3-4.3,4.3H212.9c-2.4,0-4.3-1.9-4.3-4.3V228
	C208.5,225.6,210.5,223.6,212.9,223.6z"/>
<path class="st7" d="M220.4,335c0,6.4-1.1,12.7-3.3,18.6h-49.9c-4.7,0-8.6-3.8-8.6-8.6v-62.8c2.8-0.5,5.6-0.7,8.4-0.7
	C196.5,281.6,220.4,305.5,220.4,335C220.4,335,220.4,335,220.4,335z"/>
<path class="st8" d="M661.7,122.4v-4.6h-76.3V65h-4.5v52.8h-87.5V65h-4.5v52.8h-57.8c-0.6,1.5-1.3,3-1.9,4.6h59.6v89.3h-74.1
	c0.1,1.5,0.2,3,0.3,4.6h73.8v71.2h-55.2c0.7,1.5,1.4,3,2.1,4.5h53.1v59.9h4.5V292h87.5v59.9h4.5V292h76.3v-4.5h-76.3v0
	c0-39.3,31.9-71.2,71.2-71.2l0,0h5.1v-4.6h-76.3v-89.3H661.7z M580.8,287.4h-87.5v-71.2h87.5V287.4z M580.8,211.6h-87.5v-1.8
	c0-48.3,39.2-87.5,87.5-87.5h0V211.6z"/>
<path class="st9" d="M600.2,319.9c-2.6,0.1-4.8-1.9-5-4.5c-0.1-1.4,0.5-2.8,1.5-3.7c0.1-0.5,0.2-0.8,0.3-1.3c0-0.1-0.1-0.2-0.1-0.3
	c-4.4-10.4-19.2-10.4-23.6,0.1c-3.9,9.3-8.8,18.6-10,28.4c-0.5,4.3-0.3,8.7,0.7,13c-9-19.7-13.7-41.2-13.8-62.9
	c0-5.4,0.3-10.9,0.9-16.3c0.5-4.4,1.2-8.8,2.1-13.2c4.8-23.7,15.3-46,30.4-64.9c7.3-4,13.2-10.1,17-17.6c1.3-2.7,2.3-5.5,2.8-8.5
	c-0.8,0.1-1.7,0.2-2.5,0.2c-0.3,0-0.5,0-0.8,0l-0.1,0c-2.6,0.1-4.8-1.9-4.9-4.5c-0.1-1.2,0.3-2.3,1-3.2c0.4-0.4,0.7-0.9,1.1-1.3
	c0.5-0.7,1.1-1.3,1.6-2c0.1-0.1,0.1-0.1,0.2-0.2c0.6-0.8,1.2-1.5,1.9-2.3c-1.1-1.8-2.7-3.2-4.5-4.3c-6.2-3.7-14.8-1.1-19.4,4.5
	c-4.5,5.6-5.4,13.6-3.8,20.6c1.3,6,4.3,11.6,7.6,16.8c-0.3,0.4-0.7,0.9-1,1.3c-6.2,8-11.6,16.5-16.1,25.5
	c1.1-10.1-0.2-20.3-3.8-29.8c-3.7-8.8-10.5-16.3-16.6-23.9c-7.3-9.2-22.2-5.2-23.4,6.5c0,0.1,0,0.2,0,0.3c0.9,0.5,1.8,1,2.6,1.6
	c3,2,3.8,6,1.8,8.9c-1,1.5-2.6,2.5-4.4,2.8l-0.1,0c0.3,3.2,0.9,6.4,1.7,9.6c4.7,17.8,16.6,32.8,32.9,41.4c0.5,0.3,1,0.5,1.6,0.8
	c-4.5,12.9-7.4,26.3-8.5,39.9c-0.6,8-0.6,16.1,0.1,24.1l0-0.3c-1.7-8.9-6.5-17-13.5-22.8c-10.4-8.5-25-11.6-36.2-18.5
	c-5.4-3.3-12.3,1-11.3,7.2c0,0.1,0,0.2,0,0.3c1.7,0.7,3.3,1.5,4.9,2.3c0.9,0.5,1.8,1,2.6,1.6c3,2,3.8,6,1.8,8.9
	c-1,1.5-2.6,2.5-4.4,2.8l-0.1,0c-0.1,0-0.2,0-0.3,0c2.8,6.8,6.8,13.1,11.8,18.5c12.4,13.3,29.8,20.9,48,21h0
	c2.4,10.6,6,21,10.6,30.9h37.8c0.1-0.4,0.3-0.9,0.4-1.3c-3.5,0.2-7,0-10.4-0.6c2.8-3.4,5.6-6.9,8.4-10.3c0.1-0.1,0.1-0.1,0.2-0.2
	c1.4-1.8,2.9-3.5,4.3-5.3l0,0C602.1,330.5,601.5,325.2,600.2,319.9L600.2,319.9z M556.9,234.9L556.9,234.9L556.9,234.9L556.9,234.9z
	 M548.6,310.3l-0.3-0.7c0-0.5,0-1.1,0-1.6c0-0.1,0-0.3,0-0.4C548.4,308.4,548.5,309.3,548.6,310.3L548.6,310.3z"/>
<path class="st0" d="M264,231.6L264,231.6v-50.7c0-16.2-13.1-29.4-29.4-29.4H127.1c-16.2,0-29.4,13.1-29.4,29.4l0,0v278.4
	c0,16.2,13.1,29.4,29.4,29.4l0,0h107.5c16.2,0,29.4-13.1,29.4-29.4V267.7l0,0c1,0,1.9-0.8,1.9-1.9v-32.4
	C265.8,232.4,265,231.6,264,231.6z"/>
<path class="st1" d="M257.7,181.1v278c0,12-9.7,21.8-21.7,21.9c-0.1,0-0.2,0-0.2,0h-108c-12.1,0-21.9-9.8-21.9-21.9v-278
	c0-12.1,9.8-21.9,21.9-21.9h13.1c-2.2,5.3,0.4,11.4,5.7,13.6c1.2,0.5,2.6,0.8,3.9,0.8h61.6c5.8,0,10.4-4.7,10.4-10.5
	c0-1.3-0.3-2.7-0.8-3.9h14C247.9,159.1,257.7,169,257.7,181.1z"/>
<path class="st2" d="M236.3,472.4c0,2.9-0.1,5.7-0.3,8.6c-0.1,0-0.2,0-0.2,0h-108c-12.1,0-21.9-9.8-21.9-21.9V335.2
	C178.9,338.9,236.3,399.2,236.3,472.4z"/>
<path class="st0" d="M98.3,260c-1.4,0-2.5-1.1-2.5-2.5v-17c0-1.4,1.1-2.5,2.5-2.5s2.5,1.1,2.5,2.5v17C100.8,258.9,99.7,260,98.3,260
	z"/>
<path class="st3" d="M168.5,246.4H195c2.4,0,4.3,1.9,4.3,4.3v6.8c0,2.4-1.9,4.3-4.3,4.3h-26.5c-2.4,0-4.3-1.9-4.3-4.3v-6.8
	C164.2,248.4,166.1,246.4,168.5,246.4z"/>
<path class="st0" d="M131.8,277.3h99.9c2.4,0,4.3,1.9,4.3,4.3v6.8c0,2.4-1.9,4.3-4.3,4.3h-99.9c-2.4,0-4.3-1.9-4.3-4.3v-6.8
	C127.5,279.2,129.4,277.3,131.8,277.3z"/>
<path class="st0" d="M131.8,308.2h99.9c2.4,0,4.3,1.9,4.3,4.3v6.8c0,2.4-1.9,4.3-4.3,4.3h-99.9c-2.4,0-4.3-1.9-4.3-4.3v-6.8
	C127.5,310.1,129.4,308.2,131.8,308.2z"/>
<path class="st4" d="M207.7,465.2c-1.2,0.1-2.3-0.9-2.3-2.1c0-0.7,0.2-1.3,0.7-1.7l0.2-0.6c0,0,0-0.1-0.1-0.1
	c-1.3-3-4.8-4.5-7.9-3.2c-1.4,0.6-2.6,1.8-3.2,3.2c-1.8,4.4-4.1,8.7-4.7,13.3c-0.2,2-0.1,4.1,0.3,6.1c-4.2-9.3-6.5-19.3-6.5-29.5
	c0-2.6,0.1-5.1,0.4-7.7c0.2-2.1,0.6-4.2,1-6.2c2.3-11.1,7.2-21.6,14.3-30.5c3.4-1.9,6.2-4.8,8-8.3c0.6-1.3,1.1-2.6,1.3-4
	c-0.4,0.1-0.8,0.1-1.2,0.1c-0.1,0-0.2,0-0.4,0l0,0c-1.2,0.1-2.3-0.9-2.3-2.1c0-0.5,0.2-1.1,0.5-1.5c0.2-0.2,0.3-0.4,0.5-0.6
	c0.3-0.3,0.5-0.6,0.8-0.9c0,0,0.1-0.1,0.1-0.1c0.3-0.4,0.6-0.7,0.9-1.1c-0.5-0.8-1.3-1.5-2.1-2c-2.9-1.7-7-0.5-9.1,2.1
	c-2.1,2.6-2.5,6.4-1.8,9.7c0.7,2.8,1.9,5.5,3.5,7.9c-0.2,0.2-0.3,0.4-0.5,0.6c-2.9,3.7-5.4,7.7-7.6,12c0.5-4.7-0.1-9.5-1.8-14
	c-1.7-4.1-4.9-7.6-7.8-11.2c-2.1-2.7-6-3.2-8.7-1.1c-1.3,1-2.1,2.5-2.3,4.1c0,0.1,0,0.1,0,0.2c0.4,0.2,0.8,0.5,1.2,0.8
	c1.4,0.9,1.8,2.8,0.8,4.2c-0.5,0.7-1.2,1.2-2.1,1.3l-0.1,0c0.2,1.5,0.4,3,0.8,4.5c2.2,8.3,7.8,15.4,15.4,19.4
	c0.2,0.1,0.5,0.3,0.7,0.4c-2.1,6-3.5,12.3-4,18.7c-0.3,3.8-0.3,7.5,0.1,11.3l0-0.1c-0.8-4.2-3-8-6.3-10.7c-4.9-4-11.7-5.5-17-8.7
	c-1.6-1-3.8-0.6-4.8,1c-0.4,0.7-0.6,1.5-0.5,2.3l0,0.1c0.8,0.3,1.5,0.7,2.3,1.1c0.4,0.2,0.8,0.5,1.2,0.8c1.4,0.9,1.8,2.8,0.8,4.2
	c-0.5,0.7-1.2,1.2-2.1,1.3l-0.1,0c0,0-0.1,0-0.1,0c1.3,3.2,3.2,6.1,5.5,8.7c5.8,6.2,14,9.8,22.5,9.9h0c1.1,5,2.8,9.8,5,14.5h17.7
	c0.1-0.2,0.1-0.4,0.2-0.6c-1.6,0.1-3.3,0-4.9-0.3c1.3-1.6,2.6-3.2,3.9-4.9c0,0,0.1-0.1,0.1-0.1c0.7-0.8,1.3-1.6,2-2.5l0,0
	C208.6,470.1,208.3,467.6,207.7,465.2L207.7,465.2z M187.4,425.2L187.4,425.2L187.4,425.2L187.4,425.2z M183.5,460.6l-0.2-0.3
	c0-0.2,0-0.5,0-0.7c0-0.1,0-0.1,0-0.2C183.4,459.8,183.4,460.2,183.5,460.6L183.5,460.6z"/>
<path class="st0" d="M97.8,227c-1.4,0-2.5-1.1-2.5-2.5v-17c0-1.4,1.1-2.5,2.5-2.5s2.5,1.1,2.5,2.5v17C100.3,225.9,99.2,227,97.8,227
	z"/>
<path class="st1" d="M164.3,162c0-1.4,1.1-2.5,2.5-2.5h17c1.4,0,2.5,1.1,2.5,2.5s-1.1,2.5-2.5,2.5h-17
	C165.4,164.5,164.3,163.4,164.3,162z"/>
<path class="st0" d="M98.3,289c-1.4,0-2.5-1.1-2.5-2.5v-17c0-1.4,1.1-2.5,2.5-2.5s2.5,1.1,2.5,2.5v17C100.8,287.9,99.7,289,98.3,289
	z"/>
<circle class="st1" cx="193.3" cy="162" r="2.5"/>
<path class="st5" d="M858.9,488.6L1.2,488.9c-0.7,0-1.2-0.5-1.2-1.2c0-0.7,0.5-1.2,1.2-1.2l857.8-0.3c0.7,0,1.2,0.5,1.2,1.2
	C860.1,488.1,859.6,488.6,858.9,488.6z"/>
<path class="st9" d="M366.8,226.1l-4.5,1c0-1.9-0.3-3.8-0.7-5.6c-0.4,2.2-1.3,4.4-2.5,6.3l-25.9,5.5l-24.8-26.2
	c0-13.1,7.2-23.1,20.3-23.1c0.8,0,1.6,0,2.4,0.1c14.7-2.5,28.6,7.1,31.6,21.7C371.9,214.9,368.5,220.3,366.8,226.1z"/>
<polygon class="st10" points="379.5,532.7 388.9,532.7 393.3,496.5 379.5,496.5 "/>
<path class="st9" d="M377.2,528.1l14.8-0.9v6.4l14.1,9.7c1.8,1.2,2.3,3.7,1,5.5c-0.7,1.1-2,1.7-3.3,1.7h-17.7l-3-6.3l-1.2,6.3h-6.7
	L377.2,528.1z"/>
<polygon class="st10" points="269.5,522.5 277.7,527.1 299.4,497.8 287.4,491 "/>
<path class="st9" d="M269.8,517.3l13.3,6.6l-3.1,5.5l7.5,15.4c1,2,0.1,4.3-1.8,5.3c-1.2,0.6-2.6,0.5-3.7-0.1l-15.4-8.7l0.5-7
	l-4.1,4.9l-5.8-3.3L269.8,517.3z"/>
<path class="st10" d="M414.2,232.4c-4.5,0.7-7.7,4.9-7,9.4c0.1,0.5,0.2,1,0.3,1.4l-14.4,12.4l5.4,10.6l20-17.8
	c4.3-1.7,6.3-6.6,4.6-10.9C421.7,234,418,231.9,414.2,232.4L414.2,232.4z"/>
<path class="st9" d="M399.7,275.2c-4.8,7.3-15.5,14.3-31.5,20.5c-1.8,0.7-3.8,0.6-5.5-0.2c-6-2.7-9.9-12.9-10.2-13.9l-11.6-15.7
	c-0.2-0.2-5.7-6.4-5-12.5c0.3-2.6,1.7-4.9,3.8-6.4c8.8-6.5,28.6,16.2,31.1,19.2l12.9-7.9l9.4-4.2l7.6-9.2l10.7,10.9l-9.6,15.3
	C401.3,272.6,400.6,273.9,399.7,275.2z"/>
<path class="st9" d="M366.2,303c0,0,27.6,44,22.6,49s-12.8,6.3-12.8,6.3L358.8,336L366.2,303z"/>
<path class="st9" d="M341.8,243l13,8.8c12.4,8.4,17.8,24,13.1,38.3l-3.7,11.1L341.8,243z"/>
<polygon class="st9" points="318.8,363 317.1,369.1 311.2,442.1 281.5,497.3 295.7,507.5 336.1,454.9 352.1,402.7 377.2,518.2 
	396,516.9 382.9,356.7 358.1,311.6 "/>
<path class="st7" d="M339.6,245.2l18.1,14.8c4,3.2,6.8,7.7,8.2,12.6l0,0c0.6,2.2,0.9,4.6,0.9,6.9l-0.5,32.1l16.6,44.4
	c0,0-45,17-51,2S339.6,245.2,339.6,245.2z"/>
<path class="st9" d="M345,365.8c-22.5,0-28,0.2-28.3,0.1l-0.4-0.1v-13.5l5.5-24.3c-0.6-7.5-2.1-17.5-2-26c0.5-30.8-1-60.8-1-60.8
	l11.9-11l5.4,3.5l10,10c11.7,28.7,20.9,55.7,21,57.4l0.7,29.9l-3,12C351.3,352.6,363.7,365.8,345,365.8z"/>
<polygon class="st8" points="323.8,268 321.1,285 339.6,292.7 "/>
<circle class="st10" cx="342.5" cy="208.9" r="18.1"/>
<path class="st8" d="M312.1,300.8L312.1,300.8c9.9,11.5,26.3,14.8,39.9,8.1l3.9-2L312.1,300.8z"/>
<path class="st10" d="M375.2,296.6c-3.1-3.4-8.3-3.7-11.7-0.7c-0.4,0.3-0.7,0.7-1,1.1l-18.3-5.1l-5.8,10.4l25.9,6.9
	c3.8,2.6,9,1.6,11.6-2.2C378,303.7,377.8,299.5,375.2,296.6z"/>
<path class="st9" d="M331.5,308.1c-8.7,0-20.5-5.1-34.4-15c-1.6-1.1-2.6-2.8-2.9-4.7c-1-6.5,5.3-15.4,6-16.2l6.7-18.4
	c0.1-0.3,2.2-8.3,7.6-11.1c2.3-1.2,5-1.3,7.4-0.3c10.3,3.8,2.3,32.8,1.2,36.6l13.7,6.4l8.7,5.5l11.9,1.2l-3.2,14.9l-18,0.4
	C334.6,307.9,333,308.1,331.5,308.1z"/>
<path class="st9" d="M364.2,197c-1.5,1.9-6.4,3.6-12.4,4.9c0-0.1,0-0.2,0-0.4c0-1.9-0.3-3.8-0.7-5.6c-0.4,2.2-1.3,4.4-2.5,6.3
	c-0.1,0.1-0.2,0.3-0.3,0.4c-5.1,1-10.5,1.8-14.7,2.3c2.9,10.4,14,19,12.8,25.4l-32.6,6.7c0.2-2.6,0-5.3-0.6-7.9
	c-0.6,3.4-2.3,6.5-4.7,9l-2.8,0.6l-0.8-4.1c-7.1-17.2,2.8-34.7,19.1-43.8c2.9-4.4,7.4-7.4,12.6-8.4l4.1-0.8
	C351.5,179.2,362,186.2,364.2,197C364.2,196.9,364.2,196.9,364.2,197z"/>
<path class="st2" d="M442,525.3l0.5-10.8c5-2.7,10.6-4.1,16.3-4.1c-7.8,6.4-6.9,18.8-12.2,27.4c-3.4,5.4-9.1,9-15.4,9.7l-6.6,4
	c-1.8-10.2,0.9-20.6,7.4-28.6c1.8-2.2,3.9-4.1,6.3-5.8C439.9,521.2,442,525.3,442,525.3z"/>
<path class="st5" d="M457.9,551.7H229.5c-0.7,0-1.2-0.5-1.2-1.2c0-0.7,0.5-1.2,1.2-1.2h228.4c0.7,0,1.2,0.5,1.2,1.2
	S458.6,551.7,457.9,551.7C457.9,551.7,457.9,551.7,457.9,551.7z"/>
</svg>
